<svg xmlns="http://www.w3.org/2000/svg" version="1.0" preserveAspectRatio="xMidYMid meet" viewBox="192.08 353.23 628.74 278.77">
<g transform="translate(0.000000,986.000000) scale(0.100000,-0.100000)" fill="#1E1E1E" stroke="none">
<path d="M2390 6319 c-32 -13 -78 -56 -96 -91 -26 -49 -13 -134 28 -187 17 -22 18 -49 18 -353 l0 -330 -25 -30 c-17 -20 -25 -42 -25 -67 0 -24 9 -49 25 -71 19 -26 25 -46 25 -86 0 -67 12 -93 56 -123 57 -40 58 -102 0 -109 -37 -5 -72 20 -96 68 -25 48 -60 54 -86 15 -36 -55 6 -157 82 -201 83 -49 180 -22 248 69 14 19 21 47 24 91 4 63 4 63 -42 115 -39 44 -46 58 -46 94 0 25 8 54 20 72 32 48 27 100 -15 142 l-34 34 -7 290 -7 289 24 0 c77 -1 97 -15 241 -162 383 -390 698 -717 816 -848 l132 -145 -374 -5 -374 -5 -34 -24 c-137 -99 -308 -245 -322 -275 -12 -26 -16 -66 -16 -175 l0 -140 -30 -16 c-36 -19 -44 -47 -33 -117 l8 -53 247 3 246 4 7 -34 c16 -70 48 -141 100 -213 l54 -75 -584 0 c-572 0 -585 0 -605 -20 -27 -27 -25 -62 3 -88 l23 -22 3102 0 3102 0 21 21 c17 17 20 29 15 57 -3 19 -11 39 -18 44 -7 4 -190 8 -405 8 -216 0 -393 4 -393 8 0 5 13 21 29 36 35 33 84 131 101 202 l13 51 60 7 c33 3 90 6 126 6 49 0 80 7 118 24 75 35 87 62 91 216 4 154 -7 196 -59 224 l-36 20 -7 104 c-3 58 -6 142 -6 186 0 141 -32 206 -123 250 -75 36 -346 79 -867 137 -105 11 -194 26 -206 34 -12 8 -87 101 -168 207 -80 106 -168 221 -194 255 -73 96 -116 115 -277 123 -71 4 -232 5 -356 2 -216 -5 -227 -4 -232 14 -3 10 -13 52 -22 92 -33 139 -70 168 -216 166 -148 -2 -181 -31 -195 -168 l-7 -68 -111 -127 c-117 -133 -140 -160 -306 -361 -56 -69 -104 -127 -106 -129 -2 -2 -12 3 -21 11 -10 9 -81 54 -158 100 -160 96 -184 111 -580 338 -642 370 -1032 597 -1083 632 -90 62 -149 78 -202 57z m493 -346 c73 -42 186 -109 252 -148 66 -40 170 -101 230 -136 l110 -64 -100 -7 c-96 -7 -100 -6 -130 17 -16 14 -124 96 -240 184 -115 88 -228 176 -250 195 -68 59 -16 43 128 -41z m-149 -15 c46 -36 228 -189 236 -198 3 -3 61 -51 130 -106 119 -94 159 -126 184 -149 6 -5 45 -37 86 -70 41 -33 80 -63 85 -68 6 -4 60 -47 121 -95 61 -48 193 -152 294 -232 100 -80 188 -148 194 -152 16 -10 -83 -108 -109 -108 -24 1 -75 42 -322 265 -339 306 -585 540 -775 738 -161 167 -194 207 -170 207 2 0 23 -14 46 -32z m3249 -288 c110 -16 132 -37 348 -326 104 -139 201 -261 215 -270 17 -12 79 -23 200 -35 182 -19 268 -30 624 -80 229 -32 263 -40 285 -72 20 -29 10 -37 -43 -37 -59 0 -88 -19 -112 -74 -32 -71 -29 -70 -111 -27 -101 52 -183 65 -374 59 -127 -5 -160 -9 -217 -30 -100 -37 -172 -84 -253 -165 -40 -40 -77 -73 -84 -73 -8 0 -11 65 -11 231 0 154 -4 238 -12 252 -6 12 -47 69 -91 127 -45 58 -126 166 -182 240 -56 75 -114 144 -129 154 -24 15 -53 17 -259 17 l-232 -1 -27 -30 -28 -30 0 -191 c0 -206 5 -228 56 -268 25 -20 38 -21 274 -21 l248 0 11 -30 10 -30 84 0 c83 0 85 1 91 26 6 23 10 25 54 22 l47 -3 2 -235 3 -235 -49 -80 -48 -80 -426 0 c-234 0 -429 4 -433 8 -18 18 -22 148 -23 665 -1 475 -3 543 -16 548 -8 4 -22 1 -30 -6 -13 -11 -15 -90 -15 -580 0 -312 -3 -582 -6 -599 -6 -30 -8 -31 -58 -31 l-51 0 2 632 c2 428 6 635 13 642 7 7 95 13 223 17 355 9 459 9 530 -1z m-913 -77 c0 -7 -46 -232 -115 -567 -14 -66 -29 -135 -34 -155 -5 -20 -12 -48 -15 -63 -5 -21 -12 -28 -31 -28 -13 0 -26 4 -29 9 -3 4 30 185 74 401 44 216 80 396 80 401 0 5 16 9 35 9 19 0 35 -3 35 -7z m-170 -46 c0 -21 -89 -457 -95 -468 -4 -5 -49 -9 -101 -9 -58 0 -107 -5 -127 -14 -21 -8 -78 -64 -152 -150 -66 -75 -124 -136 -131 -136 -6 0 -17 6 -23 14 -14 16 -1 34 212 291 334 403 402 484 410 485 4 0 7 -6 7 -13z m-1075 -117 c279 -165 335 -201 335 -210 0 -6 -72 -10 -180 -10 l-180 0 -195 145 c-107 79 -195 149 -195 155 0 6 49 10 133 10 l132 0 150 -90z m2186 23 c57 -60 134 -166 123 -170 -60 -21 -78 -56 -70 -135 l5 -48 -217 -1 c-244 -1 -253 -1 -267 12 -11 11 -21 339 -11 364 4 13 38 15 204 15 l198 0 35 -37z m-1823 -388 c3 -55 0 -63 -26 -88 l-28 -27 -60 38 c-80 52 -164 120 -164 133 0 6 50 9 138 7 l137 -3 3 -60z m3023 -369 c94 -20 158 -56 232 -130 70 -70 147 -178 147 -206 0 -17 -19 -30 -44 -30 -7 0 -34 31 -60 69 -98 144 -201 207 -359 221 -243 21 -421 -60 -515 -237 -44 -84 -82 -186 -96 -263 -12 -63 -13 -65 -42 -65 l-29 0 3 60 c5 119 86 321 164 410 72 81 197 154 303 175 66 13 225 11 296 -4z m-2121 -284 l0 -259 -127 -6 c-71 -4 -309 -7 -531 -7 -314 0 -403 3 -406 13 -26 93 -44 137 -85 199 -81 125 -196 205 -333 234 -265 56 -544 -122 -612 -389 -12 -48 -16 -52 -45 -55 -17 -2 -31 -1 -31 2 0 2 11 45 24 95 13 49 22 92 18 95 -3 3 -68 6 -144 6 -77 0 -148 5 -159 10 -24 13 -25 61 -2 96 9 15 71 67 137 118 l121 91 95 6 c52 3 542 6 1088 7 l992 2 0 -258z m-1482 -115 c60 -30 127 -106 148 -169 44 -133 -28 -288 -158 -342 -183 -76 -378 55 -378 255 0 36 5 81 12 100 53 156 230 229 376 156z m3565 -10 c48 -29 97 -79 124 -130 28 -50 25 -178 -5 -239 -54 -109 -163 -175 -275 -165 -70 6 -130 39 -186 103 -130 148 -70 391 111 450 67 22 176 13 231 -19z m-908 -117 l0 -25 -390 -3 c-460 -4 -555 1 -555 28 0 10 6 21 13 23 6 3 219 5 472 4 l460 -2 0 -25z m-970 -190 c-95 -7 -90 -11 25 -16 66 -2 90 -8 113 -24 l28 -22 538 8 538 7 7 -28 c12 -46 47 -115 88 -168 21 -29 38 -55 38 -59 0 -11 -2542 -10 -2559 1 -10 7 -3 21 32 64 24 30 57 81 73 114 l29 59 290 7 c160 4 356 7 437 7 140 0 216 12 187 31 -6 4 -8 12 -5 18 5 7 45 10 114 9 l107 -2 -80 -6z"/>
<path d="M5543 4913 c-14 -3 -25 -14 -29 -30 -11 -42 16 -54 116 -51 l85 3 3 33 c3 27 -1 34 -23 42 -26 10 -108 11 -152 3z" fill="#1E1E1E"/>
<path d="M4265 4363 c-118 -2 -214 -8 -219 -13 -6 -6 2 -34 24 -80 l34 -70 463 0 463 0 0 85 0 85 -277 -2 c-153 -2 -372 -4 -488 -5z" fill="#A3A3A3"/>
<path d="M3394 4245 c-140 -70 -165 -257 -48 -364 142 -132 364 -34 364 161 0 168 -170 277 -316 203z m164 -49 c58 -31 102 -96 102 -153 0 -48 -39 -111 -84 -138 -54 -31 -127 -34 -170 -5 -69 45 -95 142 -59 217 34 73 144 114 211 79z" fill="#1E1E1E"/>
<path d="M3413 4115 c-32 -32 -35 -39 -30 -78 8 -58 52 -97 108 -97 56 0 109 51 109 105 0 55 -52 105 -110 105 -35 0 -48 -6 -77 -35z" fill="#A3A3A3"/>
<path d="M6962 4259 c-44 -13 -116 -86 -132 -133 -7 -21 -10 -66 -8 -102 5 -78 40 -134 113 -179 142 -88 325 17 325 188 0 101 -43 170 -135 213 -52 25 -106 29 -163 13z m147 -69 c110 -55 129 -184 42 -271 -68 -69 -185 -58 -241 22 -30 42 -39 132 -17 175 43 83 136 115 216 74z" fill="#1E1E1E"/>
<path d="M6995 4141 c-60 -25 -80 -113 -38 -169 24 -32 82 -50 120 -36 35 12 73 68 73 108 0 73 -84 125 -155 97z" fill="#A3A3A3"/>
</g>
</svg>