<svg xmlns="http://www.w3.org/2000/svg" fill="none" viewBox="0.5 0.5 351.97 199.16">
<path d="M335.5 154.5L324.5 143C336.891 124.634 338.833 114.551 320.5 97.5L329 86C358.973 111.136 355.403 126.428 335.5 154.5Z" fill="#D9D9D9"/>
<path d="M335.5 154.5L324.5 143C336.891 124.634 338.833 114.551 320.5 97.5L329 86C358.973 111.136 355.403 126.428 335.5 154.5Z" fill="#FFC107"/>
<path d="M335.5 154.5L324.5 143C336.891 124.634 338.833 114.551 320.5 97.5L329 86C358.973 111.136 355.403 126.428 335.5 154.5Z" stroke="black" stroke-width="3"/>
<path d="M17.7388 155L28.9304 143.416C16.3233 124.916 14.3475 114.759 33 97.5839L24.352 86C-6.14265 111.32 -2.51036 126.723 17.7388 155Z" fill="#D9D9D9"/>
<path d="M17.7388 155L28.9304 143.416C16.3233 124.916 14.3475 114.759 33 97.5839L24.352 86C-6.14265 111.32 -2.51036 126.723 17.7388 155Z" fill="#FFC107"/>
<path d="M17.7388 155L28.9304 143.416C16.3233 124.916 14.3475 114.759 33 97.5839L24.352 86C-6.14265 111.32 -2.51036 126.723 17.7388 155Z" stroke="black" stroke-width="3"/>
<path d="M287 157.5C221.5 190 87.6449 175.746 59.5 148L46.5 161C112.5 206.5 205.538 210.68 296.5 171L287 157.5Z" fill="#D9D9D9"/>
<path d="M287 157.5C221.5 190 87.6449 175.746 59.5 148L46.5 161C112.5 206.5 205.538 210.68 296.5 171L287 157.5Z" fill="#FFC107"/>
<path d="M287 157.5C221.5 190 87.6449 175.746 59.5 148L46.5 161C112.5 206.5 205.538 210.68 296.5 171L287 157.5Z" stroke="black" stroke-width="3"/>
<path d="M292.5 75.8567C227 47.9979 93.1449 60.2164 65 84L52 72.8565C118 33.8543 211.038 30.2709 302 64.2846L292.5 75.8567Z" fill="#D9D9D9"/>
<path d="M292.5 75.8567C227 47.9979 93.1449 60.2164 65 84L52 72.8565C118 33.8543 211.038 30.2709 302 64.2846L292.5 75.8567Z" fill="#FFC107"/>
<path d="M292.5 75.8567C227 47.9979 93.1449 60.2164 65 84L52 72.8565C118 33.8543 211.038 30.2709 302 64.2846L292.5 75.8567Z" stroke="black" stroke-width="3"/>
<ellipse cx="85.5" cy="142.5" rx="29" ry="27.5" fill="black"/>
<ellipse cx="262.5" cy="146.5" rx="29" ry="27.5" fill="black"/>
<path d="M21.5 133.04C18.6549 138.647 18.3049 140.96 21.5 142.54L53 141.54L53.1553 141.371C59.7534 134.186 63.5001 130.107 69.5 126.54H88.5C99.1298 126.124 104.22 128.566 110.5 141.54H239.5C245.403 131.041 248.625 126.695 254 125.54H273C283.949 124.625 287.106 130.918 293 141.54H329V122.54H322.5V112.54H329V103.54H291L211 18.54C205.111 10.275 202.478 4.01752 194 2.03999C189.875 1.64358 188.869 4.12604 189 12.54V25.54H192V19.04L245.5 103.54H229.5L224 97.54C222.812 83.9073 223.934 70.5097 218.5 70.54L151.5 71.54L108.5 104.54L50.5 107.04C38.4093 108.001 29.9693 107.421 28.5 115.54C26.5879 116.532 25.8979 117.483 25.5 120.04H31L31.5 122.04L21.5 128.04V133.04Z" fill="#FFC107" stroke="black" stroke-width="3"/>
<path d="M195 104.54V79.04H217.5V104.54H195Z" fill="black" stroke="black"/>
<path d="M154.5 79.54L122 106.54H180.5L185 76.54L154.5 79.54Z" fill="black" stroke="black"/>
<path d="M198.5 19.54L259.5 105.54H269.5L198.5 19.54Z" fill="black" stroke="black"/>
<path d="M95.5 109.04C67.401 110.304 52.0808 111.266 30 116.04C56.0705 112.804 70.4389 111.736 95.5 111.54V109.04Z" fill="black" stroke="black"/>
<path d="M49.5 132.54H23.5L49.5 130.54L60.5 123.04L62 124.54L49.5 132.54Z" fill="black" stroke="black"/>
<path d="M126.5 120.04C135.458 112.63 150.384 110.682 172.729 110.735C172.464 108.388 172.041 105.832 171.5 103.04H175.5V110.751C187.046 110.857 200.484 111.433 216 112.04H311C316.476 111.053 318.953 110.154 322.5 108.04C321.012 112.881 320.507 115.719 311 117.54L216 115.04C200.332 114.153 187.143 113.33 175.5 113.151V120.04C173.849 132.574 169.12 135.343 156 135.04C169.91 130.553 173.721 124.503 172.947 113.122C155.037 112.994 140.757 114.555 126.5 120.04Z" fill="black"/>
<path d="M126.5 120.04C140.33 108.6 168.383 110.178 216 112.04H311C316.476 111.053 318.953 110.154 322.5 108.04C321.012 112.881 320.507 115.719 311 117.54L216 115.04C174.603 112.697 150.518 110.8 126.5 120.04ZM156 135.04C169.12 135.343 173.849 132.574 175.5 120.04V103.04H171.5C175.023 121.234 173.546 129.381 156 135.04Z" stroke="black"/>
<path d="M181 96.54H223" stroke="black" stroke-width="3"/>
<path d="M245 122.54C238.9 128.589 235.502 132.498 229.5 140.54H225C232.151 132.515 236.548 128.601 245 122.54Z" fill="black"/>
<path d="M328.5 133.54H310L328.5 136.04V133.54Z" fill="black"/>
<path d="M245 122.54C238.9 128.589 235.502 132.498 229.5 140.54H225C232.151 132.515 236.548 128.601 245 122.54Z" stroke="black"/>
<path d="M328.5 133.54H310L328.5 136.04V133.54Z" stroke="black"/>
<path d="M109 125.04C113.424 130.042 115.626 133.104 118.5 139.54H122.5C116.724 129.467 113.95 127.883 109 125.04Z" fill="black" stroke="black"/>
<path d="M195.5 53.54C194.5 63.54 181.581 65.5626 180 54.04L182 53.04C184.779 49.3808 186.598 48.1519 190.5 48.04L191.5 49.54C186.988 50.1939 185.618 51.2082 185 54.04C185.305 57.7875 186.087 58.9706 190.5 56.54C193.646 52.5629 195.051 51.177 195.5 53.54Z" fill="#D9D9D9" stroke="black" stroke-width="2"/>
<path d="M292.5 159.04V147.04H332.5C335.95 148.049 337.22 149.194 338 152.54C337.637 155.748 336.281 156.988 332.5 158.54L292.5 159.04Z" fill="#FFC107" stroke="black" stroke-width="3"/>
<path d="M111.5 159.04V147.04H237V159.04H111.5Z" fill="#FFC107" stroke="black" stroke-width="3"/>
<path d="M22 143.04L18.5 139.54L18 138.54L17 146.04L13 146.54C10.1817 148.101 9.46677 149.38 9 152.04C9.22578 155.161 10.052 156.645 13.5 158.54H51.5V146.04H22V143.04Z" fill="#FFC107" stroke="black" stroke-width="3"/>
<path d="M190.5 48.5399C185.5 49.0399 185.537 49.2116 182.5 53.0399L179.5 53.1937C179 49.0399 181.5 45.0399 185 42.5399V28.0399C188.935 25.7352 191.232 25.6762 195.5 28.0399V42.5399C191.829 42.1906 190.959 43.8566 190.5 48.5399Z" fill="#FFC107" stroke="black" stroke-width="3"/>
</svg>